<?xml version="1.0" encoding="UTF-8" standalone="no"?>
<svg
   id="visual"
   viewBox="0 0 900 600"
   width="900"
   height="600"
   version="1.1"
   sodipodi:docname="backgroundlogindrivcar.svg"
   xml:space="preserve"
   inkscape:version="1.4 (86a8ad7, 2024-10-11)"
   xmlns:inkscape="http://www.inkscape.org/namespaces/inkscape"
   xmlns:sodipodi="http://sodipodi.sourceforge.net/DTD/sodipodi-0.dtd"
   xmlns="http://www.w3.org/2000/svg"
   xmlns:svg="http://www.w3.org/2000/svg"><sodipodi:namedview
     id="namedview47"
     pagecolor="#ffffff"
     bordercolor="#000000"
     borderopacity="0.25"
     inkscape:showpageshadow="2"
     inkscape:pageopacity="0.0"
     inkscape:pagecheckerboard="0"
     inkscape:deskcolor="#d1d1d1"
     showguides="true"
     inkscape:zoom="0.92277435"
     inkscape:cx="300.72357"
     inkscape:cy="308.30939"
     inkscape:window-width="1920"
     inkscape:window-height="1001"
     inkscape:window-x="-9"
     inkscape:window-y="-9"
     inkscape:window-maximized="1"
     inkscape:current-layer="visual" /><rect
     x="0"
     y="0"
     width="900"
     height="600"
     fill="#001220"
     id="rect1"
     style="fill:#342e1c;fill-opacity:1" /><defs
     id="defs2"><linearGradient
       id="grad1_0"
       x1="33.3%"
       y1="0%"
       x2="100%"
       y2="100%"><stop
         offset="20%"
         stop-color="#007777"
         stop-opacity="1"
         id="stop1" /><stop
         offset="80%"
         stop-color="#007777"
         stop-opacity="1"
         id="stop2" /></linearGradient></defs><defs
     id="defs4"><linearGradient
       id="grad1_1"
       x1="33.3%"
       y1="0%"
       x2="100%"
       y2="100%"><stop
         offset="20%"
         stop-color="#007777"
         stop-opacity="1"
         id="stop3" /><stop
         offset="80%"
         stop-color="#00676e"
         stop-opacity="1"
         id="stop4" /></linearGradient></defs><defs
     id="defs6"><linearGradient
       id="grad1_2"
       x1="33.3%"
       y1="0%"
       x2="100%"
       y2="100%"><stop
         offset="20%"
         stop-color="#005864"
         stop-opacity="1"
         id="stop5" /><stop
         offset="80%"
         stop-color="#00676e"
         stop-opacity="1"
         id="stop6" /></linearGradient></defs><defs
     id="defs8"><linearGradient
       id="grad1_3"
       x1="33.3%"
       y1="0%"
       x2="100%"
       y2="100%"><stop
         offset="20%"
         stop-color="#005864"
         stop-opacity="1"
         id="stop7" /><stop
         offset="80%"
         stop-color="#004958"
         stop-opacity="1"
         id="stop8" /></linearGradient></defs><defs
     id="defs10"><linearGradient
       id="grad1_4"
       x1="33.3%"
       y1="0%"
       x2="100%"
       y2="100%"><stop
         offset="20%"
         stop-color="#003a4b"
         stop-opacity="1"
         id="stop9" /><stop
         offset="80%"
         stop-color="#004958"
         stop-opacity="1"
         id="stop10" /></linearGradient></defs><defs
     id="defs12"><linearGradient
       id="grad1_5"
       x1="33.3%"
       y1="0%"
       x2="100%"
       y2="100%"><stop
         offset="20%"
         stop-color="#003a4b"
         stop-opacity="1"
         id="stop11" /><stop
         offset="80%"
         stop-color="#002c3d"
         stop-opacity="1"
         id="stop12" /></linearGradient></defs><defs
     id="defs14"><linearGradient
       id="grad1_6"
       x1="33.3%"
       y1="0%"
       x2="100%"
       y2="100%"><stop
         offset="20%"
         stop-color="#031f2f"
         stop-opacity="1"
         id="stop13" /><stop
         offset="80%"
         stop-color="#002c3d"
         stop-opacity="1"
         id="stop14" /></linearGradient></defs><defs
     id="defs16"><linearGradient
       id="grad1_7"
       x1="33.3%"
       y1="0%"
       x2="100%"
       y2="100%"><stop
         offset="20%"
         stop-color="#031f2f"
         stop-opacity="1"
         id="stop15" /><stop
         offset="80%"
         stop-color="#001220"
         stop-opacity="1"
         id="stop16" /></linearGradient></defs><defs
     id="defs18"><linearGradient
       id="grad2_0"
       x1="0%"
       y1="0%"
       x2="66.7%"
       y2="100%"><stop
         offset="20%"
         stop-color="#007777"
         stop-opacity="1"
         id="stop17" /><stop
         offset="80%"
         stop-color="#007777"
         stop-opacity="1"
         id="stop18" /></linearGradient></defs><defs
     id="defs20"><linearGradient
       id="grad2_1"
       x1="0%"
       y1="0%"
       x2="66.7%"
       y2="100%"><stop
         offset="20%"
         stop-color="#00676e"
         stop-opacity="1"
         id="stop19" /><stop
         offset="80%"
         stop-color="#007777"
         stop-opacity="1"
         id="stop20" /></linearGradient></defs><defs
     id="defs22"><linearGradient
       id="grad2_2"
       x1="0%"
       y1="0%"
       x2="66.7%"
       y2="100%"><stop
         offset="20%"
         stop-color="#00676e"
         stop-opacity="1"
         id="stop21" /><stop
         offset="80%"
         stop-color="#005864"
         stop-opacity="1"
         id="stop22" /></linearGradient></defs><defs
     id="defs24"><linearGradient
       id="grad2_3"
       x1="0%"
       y1="0%"
       x2="66.7%"
       y2="100%"><stop
         offset="20%"
         stop-color="#004958"
         stop-opacity="1"
         id="stop23" /><stop
         offset="80%"
         stop-color="#005864"
         stop-opacity="1"
         id="stop24" /></linearGradient></defs><defs
     id="defs26"><linearGradient
       id="grad2_4"
       x1="0%"
       y1="0%"
       x2="66.7%"
       y2="100%"><stop
         offset="20%"
         stop-color="#004958"
         stop-opacity="1"
         id="stop25" /><stop
         offset="80%"
         stop-color="#003a4b"
         stop-opacity="1"
         id="stop26" /></linearGradient></defs><defs
     id="defs28"><linearGradient
       id="grad2_5"
       x1="0%"
       y1="0%"
       x2="66.7%"
       y2="100%"><stop
         offset="20%"
         stop-color="#002c3d"
         stop-opacity="1"
         id="stop27" /><stop
         offset="80%"
         stop-color="#003a4b"
         stop-opacity="1"
         id="stop28" /></linearGradient></defs><defs
     id="defs30"><linearGradient
       id="grad2_6"
       x1="0%"
       y1="0%"
       x2="66.7%"
       y2="100%"><stop
         offset="20%"
         stop-color="#002c3d"
         stop-opacity="1"
         id="stop29" /><stop
         offset="80%"
         stop-color="#031f2f"
         stop-opacity="1"
         id="stop30" /></linearGradient></defs><defs
     id="defs32"><linearGradient
       id="grad2_7"
       x1="0%"
       y1="0%"
       x2="66.7%"
       y2="100%"><stop
         offset="20%"
         stop-color="#001220"
         stop-opacity="1"
         id="stop31" /><stop
         offset="80%"
         stop-color="#031f2f"
         stop-opacity="1"
         id="stop32" /></linearGradient></defs><g
     transform="translate(900, 0)"
     id="g39"><path
       d="m 0,540.8 c -21.5,-35.9 -43,-71.9 -65.7,-83.5 -22.8,-11.6 -46.7,1.2 -68.1,-1.5 -21.4,-2.8 -40.3,-21.2 -58.1,-35.6 -17.8,-14.3 -34.5,-24.6 -63.8,-22.3 -29.4,2.3 -71.5,17.3 -98.5,10.8 -27,-6.5 -38.9,-34.5 -42.6,-64.9 -3.6,-30.4 1.1,-63.2 -2,-87.5 -3,-24.4 -14,-40.3 -43.3,-54.4 -29.3,-14.2 -77,-26.5 -74.1,-50.3 2.9,-23.8 56.5,-59 60.9,-86.1 C -451,38.3 -495.9,19.2 -540.8,0 H 0 Z"
       fill="#031927"
       id="path32"
       sodipodi:nodetypes="cccccscccscccc"
       style="fill:#453d21;fill-opacity:1" /><path
       d="m 0,473.2 c -18.8,-31.5 -37.6,-62.9 -57.5,-73.1 -19.9,-10.1 -40.9,1.1 -59.6,-1.3 -18.7,-2.4 -35.3,-18.5 -50.8,-31.1 -15.6,-12.5 -30.2,-21.6 -55.9,-19.5 -25.7,2 -62.5,15.1 -86.1,9.4 -23.6,-5.7 -34.1,-30.2 -37.3,-56.8 -3.1,-26.6 1,-55.3 -1.7,-76.6 -2.7,-21.3 -12.3,-35.2 -37.9,-47.5 -25.7,-12.4 -67.5,-23.3 -64.9,-44.1 2.6,-20.8 49.5,-51.6 53.3,-75.3 3.8,-23.8 -35.5,-40.5 -74.8,-57.3 H 0 Z"
       fill="#022636"
       id="path33"
       sodipodi:nodetypes="ccsccscscscccc"
       style="fill:#664e00;fill-opacity:1" /><path
       d="m 0,405.6 c -16.1,-27 -32.3,-53.9 -49.3,-62.6 -17.1,-8.7 -35,0.9 -51.1,-1.2 -16,-2.1 -30.2,-15.8 -43.5,-26.6 -13.4,-10.8 -25.9,-18.5 -47.9,-16.8 -22,1.8 -53.6,13 -73.8,8.2 -20.3,-4.9 -29.3,-25.9 -32,-48.7 -2.7,-22.9 0.9,-47.4 -1.5,-65.7 -2.3,-18.3 -10.5,-30.2 -32.5,-40.8 -22,-10.6 -57.8,-19.9 -55.6,-37.7 2.2,-17.9 42.5,-44.2 45.7,-64.6 3.3,-20.4 -30.4,-34.7 -64.1,-49.1 H 0 Z"
       fill="#003344"
       id="path34"
       style="fill:#997500;fill-opacity:1"
       sodipodi:nodetypes="ccccccccsccccc" /><path
       d="m 0,338 c -13.4,-22.5 -26.9,-45 -41.1,-52.2 -14.2,-7.2 -29.2,0.8 -42.5,-1 -13.4,-1.7 -25.2,-13.2 -36.4,-22.1 -11.1,-9 -21.5,-15.5 -39.8,-14 -18.4,1.5 -44.7,10.8 -61.6,6.8 -16.8,-4.1 -24.3,-21.6 -26.6,-40.6 -2.2,-19 0.7,-39.5 -1.2,-54.7 -2,-15.2 -8.8,-25.2 -27.1,-34 -18.3,-8.9 -48.2,-16.6 -46.3,-31.5 1.8,-14.8 35.3,-36.8 38,-53.8 C -281.9,23.9 -309.9,12 -338,0 H 0 Z"
       fill="#004252"
       id="path35"
       sodipodi:nodetypes="csccccccccsccc"
       style="fill:#cc9c00;fill-opacity:1" /><path
       d="m 0,270.4 c -10.8,-18 -21.5,-36 -32.9,-41.8 -11.3,-5.7 -23.3,0.7 -34,-0.7 -10.7,-1.4 -20.2,-10.6 -29.1,-17.8 -8.9,-7.2 -17.2,-12.3 -31.9,-11.1 -14.6,1.1 -35.7,8.6 -49.2,5.4 -13.5,-3.3 -19.5,-17.3 -21.3,-32.5 -1.8,-15.2 0.6,-31.6 -1,-43.8 -1.5,-12.1 -7,-20.1 -21.6,-27.2 -14.7,-7 -38.6,-13.2 -37.1,-25.1 1.5,-11.9 28.3,-29.5 30.4,-43.1 C -225.5,19.2 -248,9.6 -270.4,0 H 0 Z"
       fill="#00505e"
       id="path36"
       sodipodi:nodetypes="ccssccsccscccc"
       style="fill:#ffc300;fill-opacity:1" /><path
       d="m 0,202.8 c -8.1,-13.5 -16.1,-27 -24.7,-31.3 -8.5,-4.4 -17.5,0.5 -25.5,-0.6 -8,-1 -15.1,-7.9 -21.8,-13.3 -6.6,-5.4 -12.9,-9.3 -23.9,-8.4 -11,0.9 -26.8,6.5 -36.9,4.1 -10.1,-2.5 -14.6,-13 -16,-24.4 -1.3,-11.4 0.4,-23.7 -0.7,-32.8 -1.2,-9.1 -5.3,-15.1 -16.3,-20.4 -11,-5.3 -28.9,-9.9 -27.8,-18.9 1.1,-8.9 21.2,-22.1 22.9,-32.3 C -169.1,14.4 -186,7.2 -202.8,0 H 0 Z"
       fill="#006069"
       id="path37"
       sodipodi:nodetypes="ccccscccsccccc"
       style="fill:#ffd740;fill-opacity:1" /><path
       d="m 0,135.2 c -5.4,-9 -10.8,-18 -16.4,-20.9 -5.7,-2.9 -11.7,0.3 -17.1,-0.4 -5.3,-0.7 -10,-5.2 -14.5,-8.8 -4.4,-3.6 -8.6,-6.2 -15.9,-5.6 -7.4,0.6 -17.9,4.3 -24.6,2.7 -6.8,-1.6 -9.8,-8.6 -10.7,-16.2 -0.9,-7.7 0.3,-15.8 -0.5,-21.9 -0.8,-6.1 -3.5,-10.1 -10.8,-13.6 -7.4,-3.6 -19.3,-6.7 -18.6,-12.6 0.8,-6 14.2,-14.7 15.3,-21.5 C -112.7,9.6 -124,4.8 -135.2,0 H 0 Z"
       fill="#006f73"
       id="path38"
       sodipodi:nodetypes="cccccccsccsccc"
       style="fill:#ffe680;fill-opacity:1" /><path
       d="m 0,67.6 c -2.7,-4.5 -5.4,-9 -8.2,-10.4 -2.9,-1.5 -5.9,0.1 -8.5,-0.2 -2.7,-0.4 -5.1,-2.7 -7.3,-4.5 -2.2,-1.8 -4.3,-3.1 -8,-2.8 -3.6,0.3 -8.9,2.2 -12.3,1.4 -3.3,-0.8 -4.8,-4.3 -5.3,-8.1 -0.4,-3.8 0.1,-7.9 -0.2,-11 -0.4,-3 -1.8,-5 -5.5,-6.8 -3.6,-1.7 -9.6,-3.3 -9.2,-6.3 0.3,-2.9 7,-7.3 7.6,-10.7 C -56.4,4.8 -62,2.4 -67.6,0 H 0 Z"
       fill="#007777"
       id="path39"
       sodipodi:nodetypes="cccscccccccccc"
       style="fill:#fff0b4;fill-opacity:1" /></g><g
     transform="translate(0, 600)"
     id="g47"><path
       d="m 0,-540.8 c 26.4,2.2 52.8,4.5 75.3,17.2 22.4,12.7 40.9,35.9 67,39.1 26,3.1 59.6,-13.7 79.5,-1.2 20,12.4 26.2,54.2 40.4,77.7 14.2,23.5 36.3,28.7 57.4,39.2 21,10.5 41.1,26.1 54.5,44.6 13.4,18.5 20.3,39.8 46.5,53.9 26.3,14 72,20.8 71.4,45.6 -0.7,24.9 -47.6,67.8 -49.7,94.8 -2.1,27 40.6,38 64.5,57 23.9,19 29,46 34,72.9 H 0 Z"
       fill="#031927"
       id="path40"
       sodipodi:nodetypes="ccccscsccssccc"
       style="fill:#453d21;fill-opacity:1" /><path
       d="m 0,-473.2 c 23.1,1.9 46.2,3.9 65.9,15 19.6,11.2 35.8,31.4 58.6,34.2 22.8,2.8 52.2,-11.9 69.6,-1 17.4,10.9 22.9,47.4 35.3,68 12.4,20.6 31.8,25.1 50.2,34.3 18.5,9.2 36,22.9 47.7,39.1 11.8,16.1 17.8,34.8 40.7,47.1 23,12.2 63,18.2 62.5,39.9 -0.6,21.8 -41.6,59.3 -43.5,83 -1.8,23.6 35.5,33.2 56.4,49.8 20.9,16.7 25.4,40.2 29.8,63.8 H 0 Z"
       fill="#022636"
       id="path41"
       sodipodi:nodetypes="ccsssccccccccc"
       style="fill:#664e00;fill-opacity:1" /><path
       d="m 0,-405.6 c 19.8,1.7 39.6,3.4 56.5,12.9 16.8,9.5 30.7,26.9 50.2,29.3 19.5,2.4 44.7,-10.3 59.7,-0.9 14.9,9.3 19.6,40.7 30.3,58.3 10.6,17.6 27.2,21.5 43,29.4 15.8,7.8 30.8,19.6 40.9,33.5 10,13.9 15.2,29.8 34.9,40.4 19.7,10.5 53.9,15.6 53.5,34.2 -0.5,18.6 -35.7,50.8 -37.3,71.1 -1.5,20.2 30.5,28.5 48.4,42.8 17.9,14.2 21.7,34.4 25.5,54.6 H 0 Z"
       fill="#003344"
       id="path42"
       sodipodi:nodetypes="ccsccccccccccc"
       style="fill:#997500;fill-opacity:1" /><path
       d="m 0,-338 c 16.5,1.4 33,2.8 47.1,10.7 14,8 25.5,22.5 41.8,24.5 16.3,1.9 37.3,-8.6 49.7,-0.8 12.5,7.8 16.4,33.9 25.3,48.6 8.8,14.7 22.7,18 35.8,24.5 13.2,6.5 25.7,16.3 34.1,27.9 8.4,11.6 12.7,24.9 29.1,33.6 16.4,8.8 45,13 44.6,28.6 -0.4,15.5 -29.7,42.4 -31,59.2 -1.4,16.9 25.3,23.8 40.2,35.7 15,11.8 18.1,28.7 21.3,45.5 H 0 Z"
       fill="#004252"
       id="path43"
       sodipodi:nodetypes="ccccccsccccccc"
       style="fill:#cc9c00;fill-opacity:1" /><path
       d="m 0,-270.4 c 13.2,1.1 26.4,2.2 37.6,8.6 11.3,6.4 20.5,17.9 33.5,19.5 13.1,1.6 29.9,-6.8 39.8,-0.6 10,6.3 13.1,27.1 20.2,38.9 7.1,11.7 18.2,14.4 28.7,19.6 10.5,5.2 20.5,13.1 27.2,22.3 6.8,9.3 10.2,19.9 23.3,26.9 13.1,7.1 36,10.4 35.7,22.9 -0.3,12.4 -23.8,33.9 -24.8,47.4 -1.1,13.5 20.3,19 32.2,28.5 11.9,9.5 14.5,22.9 17,36.4 H 0 Z"
       fill="#00505e"
       id="path44"
       style="fill:#ffc300;fill-opacity:1"
       sodipodi:nodetypes="cccccsccccsccc" /><path
       d="m 0,-202.8 c 9.9,0.8 19.8,1.7 28.2,6.4 8.5,4.8 15.4,13.5 25.2,14.7 9.7,1.2 22.3,-5.1 29.8,-0.5 7.5,4.7 9.8,20.4 15.1,29.2 5.3,8.8 13.6,10.8 21.5,14.7 7.9,3.9 15.4,9.8 20.5,16.7 5,7 7.6,15 17.4,20.2 9.9,5.3 27,7.8 26.8,17.1 -0.2,9.4 -17.8,25.5 -18.6,35.6 -0.8,10.1 15.2,14.3 24.1,21.4 9,7.1 10.9,17.2 12.8,27.3 H 0 Z"
       fill="#006069"
       id="path45"
       sodipodi:nodetypes="ccccsscccscccc"
       style="fill:#ffd740;fill-opacity:1" /><path
       d="m 0,-135.2 c 6.6,0.6 13.2,1.1 18.8,4.3 5.6,3.2 10.3,9 16.8,9.8 6.5,0.8 14.9,-3.5 19.9,-0.3 4.9,3.1 6.5,13.5 10.1,19.4 3.5,5.9 9,7.2 14.3,9.8 5.3,2.6 10.3,6.5 13.6,11.2 3.4,4.6 5.1,9.9 11.7,13.4 6.5,3.5 17.9,5.2 17.8,11.4 -0.2,6.2 -11.9,17 -12.4,23.7 -0.5,6.8 10.1,9.5 16.1,14.3 6,4.7 7.2,11.5 8.5,18.2 H 0 Z"
       fill="#006f73"
       id="path46"
       sodipodi:nodetypes="cssccscccccccc"
       style="fill:#ffe680;fill-opacity:1" /><path
       d="m 0,-67.6 c 3.3,0.3 6.6,0.6 9.4,2.1 2.8,1.6 5.1,4.5 8.4,4.9 3.2,0.4 7.4,-1.7 9.9,-0.1 2.5,1.5 3.3,6.8 5.1,9.7 1.7,2.9 4.5,3.6 7.1,4.9 2.7,1.3 5.2,3.3 6.9,5.6 1.6,2.3 2.5,5 5.8,6.7 3.3,1.8 9,2.6 8.9,5.7 -0.1,3.1 -5.9,8.5 -6.2,11.9 -0.3,3.3 5.1,4.7 8,7.1 3,2.4 3.7,5.7 4.3,9.1 H 0 Z"
       fill="#007777"
       id="path47"
       sodipodi:nodetypes="ccccccccsccccc"
       style="fill:#fff0b4;fill-opacity:1" /></g></svg>
